# File created by Blade
# Date/Time:  Wed Jan 21 19:09:01 2015
#---------------------------------------------------------
:version 1.10
:name HOM
:units
  mass 1.0
  length 1.000000
  angle deg
:documentation
     Acclaim Skeleton File
:root
   axis xyz
   order TX TY TZ RX RY RZ
   position 0.000000 0.000000 0.000000
   orientation 0 0 0
:bonedata
   begin
      id 1
      name RightUpLeg_dum
      direction -1.000000 0.000000 0.000000
      length 3.693983
      axis 0.0 0.0 0.0 xyz
   end
   begin
      id 2
      name LeftUpLeg_dum
      direction 1.000000 0.000000 0.000000
      length 3.693983
      axis 0.0 0.0 0.0 xyz
   end
   begin
      id 3
      name Spine_dum
      direction 0.000000 1.000000 0.000000
      length 2.392956
      axis 0.0 0.0 0.0 xyz
   end
   begin
      id 4
      name RightUpLeg
      direction 0.000000 -1.000000 0.000000
      length 15.795667
      axis 0.0 0.0 0.0 xyz
      dof rx ry rz
   end
   begin
      id 5
      name RightLeg
      direction 0.000000 -1.000000 0.000000
      length 14.766989
      axis 0.0 0.0 0.0 xyz
      dof rx ry rz
   end
   begin
      id 6
      name RightFoot
      direction 0.000000 -0.258819 0.965926
      length 4.962790
      axis 15.0 0.0 0.0 xyz
      dof rx ry rz
   end
   begin
      id 7
      name RightToeBase
      direction 0.000000 0.000000 1.000000
      length 2.952750
      axis 0.0 0.0 0.0 xyz
      dof rx ry rz
   end
   begin
      id 8
      name LeftUpLeg
      direction 0.000000 -1.000000 0.000000
      length 15.795667
      axis 0.0 0.0 0.0 xyz
      dof rx ry rz
   end
   begin
      id 9
      name LeftLeg
      direction 0.000000 -1.000000 0.000000
      length 14.766989
      axis 0.0 0.0 0.0 xyz
      dof rx ry rz
   end
   begin
      id 10
      name LeftFoot
      direction 0.000000 -0.258819 0.965926
      length 4.962790
      axis 15.0 0.0 0.0 xyz
      dof rx ry rz
   end
   begin
      id 11
      name LeftToeBase
      direction 0.000000 0.000000 1.000000
      length 2.952750
      axis 0.0 0.0 0.0 xyz
      dof rx ry rz
   end
   begin
      id 12
      name Spine
      direction 0.000000 1.000000 0.000000
      length 0.000000
      axis 0.0 0.0 0.0 xyz
      dof rx ry rz
   end
   begin
      id 13
      name Spine_dum1
      direction 0.000000 1.000000 0.000000
      length 13.207411
      axis 0.0 0.0 0.0 xyz
   end
   begin
      id 14
      name Spine_dum2
      direction 0.000000 1.000000 0.000000
      length 13.207411
      axis 0.0 0.0 0.0 xyz
   end
   begin
      id 15
      name Spine_dum3
      direction 0.000000 1.000000 0.000000
      length 19.250100
      axis 0.0 0.0 0.0 xyz
   end
   begin
      id 16
      name RightShoulder
      direction -1.000000 0.000000 0.000000
      length 8.140465
      axis 0.0 0.0 90.0 xyz
      dof rx ry rz
   end
   begin
      id 17
      name RightArm
      direction -1.000000 0.000000 0.000000
      length 10.649840
      axis 0.0 0.0 90.0 xyz
      dof rx ry rz
   end
   begin
      id 18
      name RightForeArm
      direction -1.000000 0.000000 0.000000
      length 8.304624
      axis 0.0 0.0 90.0 xyz
      dof ry rz rx
   end
   begin
      id 19
      name RightHand
      direction -1.000000 0.000000 0.000000
      length 0.000000
      axis 0.0 0.0 90.0 xyz
      dof rx ry rz
   end
   begin
      id 20
      name RightHand_dum1
      direction -1.000000 0.000000 0.000000
      length 3.937000
      axis 0.0 0.0 90.0 xyz
   end
   begin
      id 21
      name RightHand_dum2
      direction 0.000000 0.000000 0.000000
      length 0.000000
      axis 0.0 0.0 90.0 xyz
   end
   begin
      id 22
      name RightHandThumb1
      direction 0.000000 0.000000 1.000000
      length 3.937000
      axis 0.0 0.0 90.0 xyz
      dof rx rz ry
   end
   begin
      id 23
      name LeftShoulder
      direction 1.000000 0.000000 0.000000
      length 8.140465
      axis 0.0 0.0 -90.0 xyz
      dof rx ry rz
   end
   begin
      id 24
      name LeftArm
      direction 1.000000 0.000000 0.000000
      length 10.649840
      axis 0.0 0.0 -90.0 xyz
      dof rx ry rz
   end
   begin
      id 25
      name LeftForeArm
      direction 1.000000 0.000000 0.000000
      length 8.304624
      axis 0.0 0.0 -90.0 xyz
      dof ry rz rx
   end
   begin
      id 26
      name LeftHand
      direction 1.000000 0.000000 0.000000
      length 0.000000
      axis 0.0 0.0 -90.0 xyz
      dof rx ry rz
   end
   begin
      id 27
      name LeftHand_dum1
      direction 1.000000 0.000000 0.000000
      length 3.937000
      axis 0.0 0.0 -90.0 xyz
   end
   begin
      id 28
      name LeftHand_dum2
      direction 0.000000 0.000000 0.000000
      length 0.000000
      axis 0.0 0.0 -90.0 xyz
   end
   begin
      id 29
      name LeftHandThumb1
      direction 0.000000 0.000000 1.000000
      length 3.937000
      axis 0.0 0.0 -90.0 xyz
      dof rx rz ry
   end
   begin
      id 30
      name Head
      direction 0.000000 1.000000 0.000000
      length 4.527550
      axis 0.0 0.0 0.0 xyz
      dof rx ry rz
   end
:hierarchy
   begin
      root RightUpLeg_dum LeftUpLeg_dum Spine_dum
      RightUpLeg_dum RightUpLeg
      LeftUpLeg_dum LeftUpLeg
      Spine_dum Spine
      RightUpLeg RightLeg
      RightLeg RightFoot
      RightFoot RightToeBase
      LeftUpLeg LeftLeg
      LeftLeg LeftFoot
      LeftFoot LeftToeBase
      Spine Spine_dum1 Spine_dum2 Spine_dum3
      Spine_dum1 RightShoulder
      Spine_dum2 LeftShoulder
      Spine_dum3 Head
      RightShoulder RightArm
      RightArm RightForeArm
      RightForeArm RightHand
      RightHand RightHand_dum1 RightHand_dum2
      RightHand_dum2 RightHandThumb1
      LeftShoulder LeftArm
      LeftArm LeftForeArm
      LeftForeArm LeftHand
      LeftHand LeftHand_dum1 LeftHand_dum2
      LeftHand_dum2 LeftHandThumb1
   end

# File created by Blade
# Date/Time:  Wed Jan 21 19:08:52 2015
# Frame Rate: 120.000 fps
#------------------------------------------------------
:FULLY-SPECIFIED
:DEGREES
657
root 0.060338 31.695473 -8.989454 72.604088 29.248177 7.082179
RightUpLeg -77.786558 9.215383 3.433293
RightLeg 6.916957 -0.000000 -0.000000
RightFoot -5.379370 -2.631199 5.526145
RightToeBase 21.206905 -0.000000 -0.000000
LeftUpLeg -60.235497 -12.111288 -4.111168
LeftLeg -5.082380 -0.000000 0.000000
LeftFoot 3.654387 -29.596424 -34.263428
LeftToeBase 18.635342 -0.000000 -0.000000
Spine -32.725772 -37.735950 -13.233496
RightShoulder -26.450960 11.480132 -72.305414
RightArm -13.768022 -15.204945 28.023249
RightForeArm 10.522530 -0.000000 -9.896754
RightHand 11.965785 -0.000000 2.807889
RightHandThumb1 -24.326973 -0.000000 -32.862282
LeftShoulder 0.514144 -1.364416 2.890997
LeftArm 27.133331 21.142339 -63.808169
LeftForeArm 12.254039 0.000000 -6.079984
LeftHand -21.015422 0.000000 8.262308
LeftHandThumb1 -26.253704 0.000000 33.147579
Head -16.080747 -3.794660 -29.008848
658
root 0.043388 31.693086 -9.010150 72.649820 28.918501 7.136435
RightUpLeg -77.917341 9.237221 3.235415
RightLeg 7.008089 -0.000000 -0.000000
RightFoot -5.327138 -2.494283 5.552204
RightToeBase 21.317968 -0.000000 -0.000000
LeftUpLeg -60.319026 -12.274507 -4.043217
LeftLeg -5.144319 -0.000000 0.000000
LeftFoot 3.208340 -29.261923 -33.037176
LeftToeBase 18.476623 -0.000000 -0.000000
Spine -32.554388 -37.852746 -13.436555
RightShoulder -26.634258 11.362890 -72.387762
RightArm -13.765296 -15.460667 27.895103
RightForeArm 10.527137 -0.000000 -10.056927
RightHand 11.566140 -0.000000 3.247537
RightHandThumb1 -24.326973 -0.000000 -32.862282
LeftShoulder 0.423821 -1.276766 2.885402
LeftArm 27.062437 21.024294 -63.589343
LeftForeArm 12.139913 -0.000000 -6.100415
LeftHand -21.057391 -0.000000 8.289010
LeftHandThumb1 -26.253704 0.000000 33.147579
Head -16.602830 -3.962440 -29.049191
659
root 0.025026 31.691426 -9.027946 72.687058 28.635655 7.160440
RightUpLeg -78.037225 9.291821 3.020466
RightLeg 7.059029 -0.000000 -0.000000
RightFoot -5.227550 -2.416469 5.591557
RightToeBase 21.301456 -0.000000 -0.000000
LeftUpLeg -60.411951 -12.425363 -3.905968
LeftLeg -5.212564 -0.000000 0.000000
LeftFoot 2.786807 -28.888167 -32.227863
LeftToeBase 18.582612 -0.000000 -0.000000
Spine -32.429237 -37.952377 -13.572830
RightShoulder -26.704288 11.390445 -72.574774
RightArm -14.007399 -15.778522 27.851927
RightForeArm 10.514113 -0.000000 -10.148442
RightHand 11.408416 -0.000000 3.364771
RightHandThumb1 -24.326973 -0.000000 -32.862282
LeftShoulder 0.369772 -1.223466 2.869049
LeftArm 26.926816 20.905579 -63.402046
LeftForeArm 12.033935 -0.000000 -6.144157
LeftHand -21.029245 0.000000 8.309406
LeftHandThumb1 -26.253704 0.000000 33.147579
Head -17.044508 -4.063021 -29.118786
660
root 0.007750 31.690808 -9.046186 72.737073 28.352899 7.192076
RightUpLeg -78.181556 9.342151 2.783751
RightLeg 7.132749 -0.000000 -0.000000
RightFoot -5.145634 -2.358850 5.606253
RightToeBase 21.330331 -0.000000 -0.000000
LeftUpLeg -60.507605 -12.568818 -3.819115
LeftLeg -5.282164 -0.000000 0.000000
LeftFoot 2.377638 -28.470171 -31.176252
LeftToeBase 18.657390 -0.000000 -0.000000
Spine -32.283705 -38.050765 -13.733669
RightShoulder -26.819725 11.329488 -72.671551
RightArm -14.129352 -16.144225 27.779548
RightForeArm 10.608398 0.000000 -10.284822
RightHand 11.577983 -0.000000 3.157202
RightHandThumb1 -24.326973 -0.000000 -32.862282
LeftShoulder 0.300228 -1.082894 2.872277
LeftArm 26.916664 20.771771 -63.196237
LeftForeArm 11.954493 -0.000000 -6.203083
LeftHand -21.040025 -0.000000 8.340069
LeftHandThumb1 -26.253704 0.000000 33.147579
Head -17.462086 -4.159472 -29.157784
661
root -0.011709 31.690077 -9.065285 72.772959 28.107711 7.200538
RightUpLeg -78.331259 9.418302 2.532718
RightLeg 7.211450 -0.000000 -0.000000
RightFoot -5.058030 -2.356747 5.685868
RightToeBase 21.357672 -0.000000 -0.000000
LeftUpLeg -60.626738 -12.685602 -3.754467
LeftLeg -5.265590 -0.000000 0.000000
LeftFoot 1.835581 -28.119217 -30.044993
LeftToeBase 18.041802 -0.000000 -0.000000
Spine -32.157177 -38.178365 -13.828086
RightShoulder -26.916815 11.317722 -72.761371
RightArm -14.220207 -16.391273 27.663922
RightForeArm 10.521352 -0.000000 -10.428749
RightHand 11.404484 -0.000000 3.130850
RightHandThumb1 -24.326973 -0.000000 -32.862282
LeftShoulder 0.210316 -1.131852 2.901706
LeftArm 26.724030 20.701012 -63.092749
LeftForeArm 11.927772 -0.000000 -6.299343
LeftHand -21.084920 -0.000000 8.395523
LeftHandThumb1 -26.253704 0.000000 33.147579
Head -17.894756 -4.212204 -29.137865
662
root -0.025953 31.687949 -9.082008 72.788831 27.868672 7.188159
RightUpLeg -78.442152 9.490167 2.334063
RightLeg 7.256941 -0.000000 -0.000000
RightFoot -4.958589 -2.294418 5.768044
RightToeBase 21.350374 -0.000000 -0.000000
LeftUpLeg -60.717481 -12.805580 -3.644352
LeftLeg -5.275514 -0.000000 0.000000
LeftFoot 1.331032 -27.717434 -29.216057
LeftToeBase 18.296000 -0.000000 -0.000000
Spine -32.048280 -38.256073 -13.921278
RightShoulder -26.964241 11.319925 -72.857288
RightArm -14.377542 -16.694464 27.558520
RightForeArm 10.528944 0.000000 -10.546615
RightHand 11.370188 -0.000000 3.201901
RightHandThumb1 -24.326973 -0.000000 -32.862282
LeftShoulder 0.167918 -1.013983 2.930070
LeftArm 26.645742 20.671947 -62.911065
LeftForeArm 11.631954 0.000000 -6.317613
LeftHand -21.115561 -0.000000 8.461291
LeftHandThumb1 -26.253704 0.000000 33.147579
Head -18.220292 -4.239027 -29.162818
663
root -0.040165 31.686375 -9.099600 72.818751 27.658186 7.183541
RightUpLeg -78.561831 9.549909 2.154249
RightLeg 7.305646 -0.000000 -0.000000
RightFoot -4.875078 -2.271945 5.740510
RightToeBase 21.370940 -0.000000 -0.000000
LeftUpLeg -60.812155 -12.900165 -3.558781
LeftLeg -5.301696 -0.000000 0.000000
LeftFoot 1.002547 -27.367208 -28.390331
LeftToeBase 18.317363 -0.000000 -0.000000
Spine -31.960419 -38.379423 -13.955897
RightShoulder -27.015209 11.287642 -72.913449
RightArm -14.462240 -16.921684 27.432897
RightForeArm 10.557913 0.000000 -10.655914
RightHand 11.249819 0.000000 3.141100
RightHandThumb1 -24.326973 -0.000000 -32.862282
LeftShoulder 0.053996 -1.005426 2.953042
LeftArm 26.529700 20.672586 -62.782866
LeftForeArm 11.525920 -0.000000 -6.425680
LeftHand -21.054565 -0.000000 8.403616
LeftHandThumb1 -26.253704 0.000000 33.147579
Head -18.572651 -4.226231 -29.156462
664
root -0.053194 31.685786 -9.116290 72.847299 27.403277 7.193325
RightUpLeg -78.681275 9.607806 1.927260
RightLeg 7.358888 -0.000000 -0.000000
RightFoot -4.764787 -2.229386 5.834850
RightToeBase 21.313393 -0.000000 -0.000000
LeftUpLeg -60.887053 -12.987365 -3.539618
LeftLeg -5.350094 -0.000000 0.000000
LeftFoot 0.751876 -27.199978 -27.413397
LeftToeBase 18.589777 -0.000000 -0.000000
Spine -31.836242 -38.466087 -14.097291
RightShoulder -27.094209 11.129813 -72.896002
RightArm -14.441299 -16.993504 27.252598
RightForeArm 10.514742 0.000000 -10.782502
RightHand 11.327258 -0.000000 3.069643
RightHandThumb1 -24.326973 -0.000000 -32.862282
LeftShoulder 0.019588 -0.983742 3.022440
LeftArm 26.342054 20.420466 -62.810262
LeftForeArm 11.593081 -0.000000 -6.472011
LeftHand -21.151116 0.000000 8.504642
LeftHandThumb1 -26.253704 0.000000 33.147579
Head -18.879591 -4.271886 -29.119999
665
root -0.065770 31.684554 -9.132739 72.885135 27.188765 7.193509
RightUpLeg -78.796879 9.664660 1.740465
RightLeg 7.393455 -0.000000 -0.000000
RightFoot -4.687335 -2.194869 5.849690
RightToeBase 21.350372 -0.000000 -0.000000
LeftUpLeg -60.983001 -13.084003 -3.477498
LeftLeg -5.380882 -0.000000 0.000000
LeftFoot 0.489179 -26.932174 -26.629729
LeftToeBase 18.911249 -0.000000 -0.000000
Spine -31.748795 -38.548504 -14.181872
RightShoulder -27.156163 11.059305 -72.948413
RightArm -14.477254 -17.175421 27.136253
RightForeArm 10.514256 -0.000000 -10.892512
RightHand 11.213255 -0.000000 3.060291
RightHandThumb1 -24.326973 -0.000000 -32.862282
LeftShoulder -0.040076 -0.863619 3.083702
LeftArm 26.298156 20.165079 -62.784626
LeftForeArm 11.611158 -0.000000 -6.539198
LeftHand -21.126773 0.000000 8.353890
LeftHandThumb1 -26.253704 0.000000 33.147579
Head -19.115291 -4.279650 -29.076973
666
root -0.078926 31.682728 -9.147737 72.906040 27.004236 7.190342
RightUpLeg -78.901331 9.712071 1.595503
RightLeg 7.452743 -0.000000 -0.000000
RightFoot -4.624804 -2.134782 5.897447
RightToeBase 21.335837 -0.000000 -0.000000
LeftUpLeg -61.077342 -13.172448 -3.445648
LeftLeg -5.352176 -0.000000 0.000000
LeftFoot -0.123688 -26.698700 -25.400967
LeftToeBase 19.417474 -0.000000 -0.000000
Spine -31.630139 -38.627280 -14.264976
RightShoulder -27.221565 10.916972 -72.929191
RightArm -14.454232 -17.223314 26.949221
RightForeArm 10.503912 -0.000000 -10.989062
RightHand 11.280645 -0.000000 2.983649
RightHandThumb1 -24.326973 -0.000000 -32.862282
LeftShoulder -0.085724 -0.857360 3.172436
LeftArm 26.128913 19.999526 -62.825837
LeftForeArm 11.601676 -0.000000 -6.571954
LeftHand -21.182260 0.000000 8.439977
LeftHandThumb1 -26.253704 0.000000 33.147579
Head -19.359767 -4.301764 -29.006760
